<svg width="105" height="34" viewBox="0 0 105 34" fill="none" xmlns="http://www.w3.org/2000/svg">
<path d="M58.4937 10.4839C58.4937 12.2476 58.1792 13.7275 57.5503 14.9238C56.9282 16.1133 56.0122 16.9849 54.8022 17.5386L58.4116 21.5684H54.3408L51.5928 18.2051H51.3569C49.0601 18.2051 47.2964 17.5386 46.0659 16.2056C44.8354 14.8726 44.2202 12.9585 44.2202 10.4634C44.2202 7.96826 44.8354 6.06445 46.0659 4.75195C47.3032 3.43262 49.0737 2.77295 51.3774 2.77295C53.6812 2.77295 55.4414 3.43604 56.6582 4.76221C57.8818 6.08838 58.4937 7.99561 58.4937 10.4839ZM47.5527 10.4839C47.5527 12.1587 47.8706 13.4199 48.5063 14.2676C49.1421 15.1152 50.0923 15.5391 51.3569 15.5391C53.8931 15.5391 55.1611 13.854 55.1611 10.4839C55.1611 7.10693 53.8999 5.41846 51.3774 5.41846C50.1128 5.41846 49.1592 5.8457 48.5166 6.7002C47.874 7.54785 47.5527 8.80908 47.5527 10.4839Z" fill="#05C7F2"/>
<path d="M69.4756 18L69.0552 16.5337H68.8911C68.5562 17.0669 68.0811 17.4805 67.4658 17.7744C66.8506 18.0615 66.1499 18.2051 65.3638 18.2051C64.0171 18.2051 63.002 17.8462 62.3184 17.1284C61.6348 16.4038 61.293 15.3647 61.293 14.0112V6.53613H64.4204V13.2319C64.4204 14.0591 64.5674 14.6812 64.8613 15.0981C65.1553 15.5083 65.6235 15.7134 66.2661 15.7134C67.1411 15.7134 67.7734 15.4229 68.1631 14.8418C68.5527 14.2539 68.7476 13.2832 68.7476 11.9297V6.53613H71.875V18H69.4756ZM75.0229 3.57275C75.0229 2.5542 75.5903 2.04492 76.7251 2.04492C77.8599 2.04492 78.4272 2.5542 78.4272 3.57275C78.4272 4.05811 78.2837 4.4375 77.9966 4.71094C77.7163 4.97754 77.2925 5.11084 76.7251 5.11084C75.5903 5.11084 75.0229 4.59814 75.0229 3.57275ZM78.2837 18H75.1562V6.53613H78.2837V18ZM86.2305 18.2051C82.6621 18.2051 80.8779 16.2466 80.8779 12.3296C80.8779 10.3813 81.3633 8.89453 82.334 7.86914C83.3047 6.83691 84.6958 6.3208 86.5073 6.3208C87.8335 6.3208 89.0229 6.58057 90.0757 7.1001L89.1528 9.52002C88.6606 9.32178 88.2026 9.16113 87.7788 9.03809C87.355 8.9082 86.9312 8.84326 86.5073 8.84326C84.8804 8.84326 84.0669 9.99854 84.0669 12.3091C84.0669 14.5513 84.8804 15.6724 86.5073 15.6724C87.1089 15.6724 87.666 15.5938 88.1787 15.4365C88.6914 15.2725 89.2041 15.0195 89.7168 14.6777V17.354C89.2109 17.6753 88.6982 17.8975 88.1787 18.0205C87.666 18.1436 87.0166 18.2051 86.2305 18.2051ZM95.3872 11.7656L96.751 10.0225L99.9604 6.53613H103.488L98.9351 11.5093L103.765 18H100.155L96.8535 13.355L95.5103 14.4316V18H92.3828V2.04492H95.5103V9.16113L95.3462 11.7656H95.3872Z" fill="#474562"/>
<path d="M47.749 31H46.4653V24.2485H44.1558V23.1475H50.0586V24.2485H47.749V31ZM54.146 24.9521C54.4002 24.9521 54.6097 24.9701 54.7744 25.0059L54.6509 26.1821C54.4718 26.1392 54.2856 26.1177 54.0923 26.1177C53.5874 26.1177 53.1774 26.2824 52.8623 26.6118C52.5508 26.9412 52.395 27.3691 52.395 27.8955V31H51.1328V25.0596H52.1211L52.2876 26.1069H52.3521C52.549 25.7524 52.805 25.4714 53.1201 25.2637C53.4388 25.056 53.7808 24.9521 54.146 24.9521ZM59.5977 31L59.3452 30.1729H59.3022C59.0158 30.5345 58.7275 30.7816 58.4375 30.9141C58.1475 31.043 57.7751 31.1074 57.3203 31.1074C56.7367 31.1074 56.2801 30.9499 55.9507 30.6348C55.6248 30.3197 55.4619 29.8739 55.4619 29.2974C55.4619 28.6851 55.6893 28.2231 56.144 27.9116C56.5988 27.6001 57.2917 27.43 58.2227 27.4014L59.2485 27.3691V27.0522C59.2485 26.6727 59.159 26.3898 58.98 26.2036C58.8045 26.0138 58.5306 25.9189 58.1582 25.9189C57.8538 25.9189 57.562 25.9637 57.2827 26.0532C57.0034 26.1427 56.7349 26.2484 56.4771 26.3701L56.0688 25.4678C56.3911 25.2995 56.7438 25.1724 57.127 25.0864C57.5101 24.9969 57.8717 24.9521 58.2119 24.9521C58.9674 24.9521 59.5368 25.1169 59.9199 25.4463C60.3066 25.7757 60.5 26.2931 60.5 26.9985V31H59.5977ZM57.7178 30.1406C58.1761 30.1406 58.5431 30.0135 58.8188 29.7593C59.0981 29.5015 59.2378 29.1416 59.2378 28.6797V28.1641L58.4751 28.1963C57.8807 28.2178 57.4474 28.318 57.1753 28.4971C56.9067 28.6725 56.7725 28.9429 56.7725 29.3081C56.7725 29.5731 56.8512 29.779 57.0088 29.9258C57.1663 30.069 57.4027 30.1406 57.7178 30.1406ZM67.4878 31H66.2202V27.3477C66.2202 26.8893 66.1271 26.5474 65.9409 26.3218C65.7583 26.0962 65.4665 25.9834 65.0654 25.9834C64.5319 25.9834 64.1416 26.141 63.8945 26.4561C63.6475 26.7712 63.5239 27.2993 63.5239 28.0405V31H62.2617V25.0596H63.25L63.4272 25.8384H63.4917C63.6707 25.5555 63.925 25.3371 64.2544 25.1831C64.5838 25.0291 64.9491 24.9521 65.3501 24.9521C66.7752 24.9521 67.4878 25.6772 67.4878 27.1274V31ZM73.2349 29.3081C73.2349 29.8882 73.0236 30.334 72.6011 30.6455C72.1785 30.9535 71.5734 31.1074 70.7856 31.1074C69.9943 31.1074 69.3587 30.9875 68.8789 30.7476V29.6572C69.5771 29.9795 70.2271 30.1406 70.8286 30.1406C71.6056 30.1406 71.9941 29.9061 71.9941 29.437C71.9941 29.2866 71.9512 29.1613 71.8652 29.061C71.7793 28.9608 71.6379 28.8569 71.4409 28.7495C71.244 28.6421 70.9701 28.5203 70.6191 28.3843C69.9352 28.1193 69.4715 27.8543 69.228 27.5894C68.9881 27.3244 68.8682 26.9806 68.8682 26.5581C68.8682 26.0496 69.0723 25.6558 69.4805 25.3765C69.8923 25.0936 70.4508 24.9521 71.1562 24.9521C71.8545 24.9521 72.5151 25.0936 73.1382 25.3765L72.73 26.3271C72.089 26.0622 71.5501 25.9297 71.1133 25.9297C70.4473 25.9297 70.1143 26.1195 70.1143 26.499C70.1143 26.6852 70.2002 26.8428 70.3721 26.9717C70.5475 27.1006 70.9271 27.2778 71.5107 27.5034C72.0013 27.6932 72.3576 27.8669 72.5796 28.0244C72.8016 28.182 72.9663 28.3646 73.0737 28.5723C73.1812 28.7764 73.2349 29.0216 73.2349 29.3081ZM75.8667 31H74.6045V22.6426H75.8667V31ZM81.3936 31L81.1411 30.1729H81.0981C80.8117 30.5345 80.5234 30.7816 80.2334 30.9141C79.9434 31.043 79.571 31.1074 79.1162 31.1074C78.5326 31.1074 78.076 30.9499 77.7466 30.6348C77.4207 30.3197 77.2578 29.8739 77.2578 29.2974C77.2578 28.6851 77.4852 28.2231 77.9399 27.9116C78.3947 27.6001 79.0876 27.43 80.0186 27.4014L81.0444 27.3691V27.0522C81.0444 26.6727 80.9549 26.3898 80.7759 26.2036C80.6004 26.0138 80.3265 25.9189 79.9541 25.9189C79.6497 25.9189 79.3579 25.9637 79.0786 26.0532C78.7993 26.1427 78.5308 26.2484 78.2729 26.3701L77.8647 25.4678C78.187 25.2995 78.5397 25.1724 78.9229 25.0864C79.306 24.9969 79.6676 24.9521 80.0078 24.9521C80.7633 24.9521 81.3327 25.1169 81.7158 25.4463C82.1025 25.7757 82.2959 26.2931 82.2959 26.9985V31H81.3936ZM79.5137 30.1406C79.972 30.1406 80.339 30.0135 80.6147 29.7593C80.894 29.5015 81.0337 29.1416 81.0337 28.6797V28.1641L80.271 28.1963C79.6766 28.2178 79.2433 28.318 78.9712 28.4971C78.7026 28.6725 78.5684 28.9429 78.5684 29.3081C78.5684 29.5731 78.6471 29.779 78.8047 29.9258C78.9622 30.069 79.1986 30.1406 79.5137 30.1406ZM86.2705 30.0869C86.5785 30.0869 86.8864 30.0386 87.1943 29.9419V30.8926C87.0547 30.9535 86.8739 31.0036 86.6519 31.043C86.4334 31.0859 86.2061 31.1074 85.9697 31.1074C84.7738 31.1074 84.1758 30.4772 84.1758 29.2168V26.0156H83.3647V25.457L84.2349 24.9951L84.6646 23.7383H85.4434V25.0596H87.1353V26.0156H85.4434V29.1953C85.4434 29.4997 85.5186 29.7253 85.6689 29.8721C85.8229 30.0153 86.0234 30.0869 86.2705 30.0869ZM89.6489 31H88.3867V25.0596H89.6489V31ZM88.3115 23.4858C88.3115 23.2603 88.3724 23.0866 88.4941 22.9648C88.6195 22.8431 88.7967 22.7822 89.0259 22.7822C89.2479 22.7822 89.4198 22.8431 89.5415 22.9648C89.6668 23.0866 89.7295 23.2603 89.7295 23.4858C89.7295 23.7007 89.6668 23.8708 89.5415 23.9961C89.4198 24.1178 89.2479 24.1787 89.0259 24.1787C88.7967 24.1787 88.6195 24.1178 88.4941 23.9961C88.3724 23.8708 88.3115 23.7007 88.3115 23.4858ZM96.728 28.019C96.728 28.9894 96.4792 29.7467 95.9814 30.291C95.4837 30.8353 94.7909 31.1074 93.9028 31.1074C93.3478 31.1074 92.8573 30.9821 92.4312 30.7314C92.005 30.4808 91.6774 30.1209 91.4482 29.6519C91.2191 29.1828 91.1045 28.6385 91.1045 28.019C91.1045 27.0558 91.3516 26.3039 91.8457 25.7632C92.3398 25.2225 93.0363 24.9521 93.9351 24.9521C94.7944 24.9521 95.4748 25.2297 95.9761 25.7847C96.4774 26.3361 96.728 27.0809 96.728 28.019ZM92.4043 28.019C92.4043 29.3905 92.911 30.0762 93.9243 30.0762C94.9269 30.0762 95.4282 29.3905 95.4282 28.019C95.4282 26.6619 94.9233 25.9834 93.9136 25.9834C93.3836 25.9834 92.9987 26.1589 92.7588 26.5098C92.5225 26.8607 92.4043 27.3638 92.4043 28.019ZM103.41 31H102.142V27.3477C102.142 26.8893 102.049 26.5474 101.863 26.3218C101.68 26.0962 101.388 25.9834 100.987 25.9834C100.454 25.9834 100.063 26.141 99.8164 26.4561C99.5693 26.7712 99.4458 27.2993 99.4458 28.0405V31H98.1836V25.0596H99.1719L99.3491 25.8384H99.4136C99.5926 25.5555 99.8468 25.3371 100.176 25.1831C100.506 25.0291 100.871 24.9521 101.272 24.9521C102.697 24.9521 103.41 25.6772 103.41 27.1274V31Z" fill="#7D7B98"/>
<g clip-path="url(#clip0)">
<path d="M20.8077 7.17188C14.8148 7.17188 9.9566 12.0301 9.9566 18.0229V20.3378C9.9566 26.3307 14.8148 31.1889 20.8077 31.1889C26.8006 31.1889 31.6588 26.3307 31.6588 20.3378V18.023C31.6588 12.0301 26.8006 7.17188 20.8077 7.17188Z" fill="#A36BF2"/>
<path d="M27.683 30.3159C27.5624 30.3996 27.5294 30.5652 27.6128 30.686C28.6451 32.1802 29.4804 32.8565 30.8873 33.9572C30.9904 34.0378 31.1372 34.0316 31.2328 33.9421L33.9393 31.4083C34.0576 31.2976 34.0494 31.1073 33.9236 31.0052C32.5542 29.8939 31.8162 29.0976 30.8442 27.7271C30.7402 27.5805 30.5237 27.5752 30.4117 27.7158C29.5568 28.7889 28.7709 29.5617 27.683 30.3159Z" fill="#A36BF2"/>
<path d="M22.5601 18.1411V14.7985C22.5601 14.518 22.5134 14.3388 22.4198 14.2609C22.3264 14.1674 22.1394 14.1206 21.8589 14.1206H19.5214V18.819H21.8589C22.1394 18.819 22.3264 18.78 22.4198 18.7021C22.5134 18.6086 22.5601 18.4216 22.5601 18.1411ZM22.5601 24.7563V21.1565C22.5601 20.876 22.5134 20.6968 22.4198 20.6189C22.3264 20.5254 22.1394 20.4786 21.8589 20.4786H19.5214V25.4341H21.8589C22.1394 25.4341 22.3264 25.3952 22.4198 25.3173C22.5134 25.2238 22.5601 25.0368 22.5601 24.7563ZM17.4176 12.461H22.49C23.9548 12.461 24.6872 13.1467 24.6872 14.518V18.2346C24.6872 19.0605 24.3756 19.5436 23.7522 19.6839C24.3756 19.8397 24.6872 20.2916 24.6872 21.0396V25.0368C24.6872 26.4081 23.9548 27.0938 22.49 27.0938H17.4176V12.461Z" fill="white"/>
<path d="M13.2691 0C19.2902 0 24.1714 4.88112 24.1714 10.9023V13.2281C24.1714 19.2493 19.2902 24.1304 13.2691 24.1304C7.24791 24.1304 2.36679 19.2493 2.36679 13.2281V10.9023C2.36679 4.88112 7.24791 0 13.2691 0Z" fill="#05C7F2"/>
<path d="M6.36228 23.254C6.48295 23.3376 6.51599 23.5033 6.43254 23.6241C5.39487 25.1263 4.55542 25.8059 3.14104 26.9124C3.03795 26.993 2.89113 26.9867 2.79558 26.8973L0.0744709 24.3498C-0.0438396 24.2391 -0.0356847 24.0488 0.0901645 23.9467C1.46719 22.8293 2.20887 22.0291 3.18618 20.6509C3.29013 20.5043 3.50666 20.4989 3.61863 20.6395C4.47826 21.7187 5.26827 22.4957 6.36228 23.254Z" fill="#05C7F2"/>
<path d="M8.27219 9.42438C8.27219 8.22906 9.10094 7.51188 10.2006 7.51188C11.2844 7.51188 12.1291 8.22906 12.1291 9.42438C12.1291 10.6197 11.2844 11.3369 10.2006 11.3369C9.10094 11.3369 8.27219 10.6197 8.27219 9.42438ZM14.1691 9.42438C14.1691 7.25688 12.4319 5.695 10.2006 5.695C7.95344 5.695 6.21625 7.25688 6.21625 9.42438C6.21625 11.5759 7.95344 13.1538 10.2006 13.1538C12.4319 13.1538 14.1691 11.5759 14.1691 9.42438ZM10.2962 14.3331H8.1925V19.1781H18.1853V17.5047H10.2962V14.3331ZM17.6594 8.96219V4.75469H15.5556V15.4328H17.6594V10.6834H19.6037V8.96219H17.6594Z" fill="white"/>
</g>
<defs>
<clipPath id="clip0">
<rect width="34" height="34" fill="white"/>
</clipPath>
</defs>
</svg>
